<?xml version="1.0" encoding="UTF-8" standalone="no"?>
<svg
   xmlns:dc="http://purl.org/dc/elements/1.1/"
   xmlns:cc="http://creativecommons.org/ns#"
   xmlns:rdf="http://www.w3.org/1999/02/22-rdf-syntax-ns#"
   xmlns:svg="http://www.w3.org/2000/svg"
   xmlns="http://www.w3.org/2000/svg"
   xmlns:sodipodi="http://sodipodi.sourceforge.net/DTD/sodipodi-0.dtd"
   xmlns:inkscape="http://www.inkscape.org/namespaces/inkscape"
   width="48px"
   height="48px"
   version="1.1"
   id="svg8064"
   inkscape:version="0.91 r13725"
   sodipodi:docname="Double_U_groove.svg">
  <metadata
     id="metadata8082">
    <rdf:RDF>
      <cc:Work
         rdf:about="">
        <dc:format>image/svg+xml</dc:format>
        <dc:type
           rdf:resource="http://purl.org/dc/dcmitype/StillImage" />
      </cc:Work>
    </rdf:RDF>
  </metadata>
  <defs
     id="defs8080" />
  <sodipodi:namedview
     pagecolor="#ffffff"
     bordercolor="#666666"
     borderopacity="1"
     objecttolerance="10"
     gridtolerance="10"
     guidetolerance="10"
     inkscape:pageopacity="0"
     inkscape:pageshadow="2"
     inkscape:window-width="1920"
     inkscape:window-height="1053"
     id="namedview8078"
     showgrid="false"
     inkscape:zoom="6.9532167"
     inkscape:cx="24.297858"
     inkscape:cy="9.2262675"
     inkscape:window-x="0"
     inkscape:window-y="0"
     inkscape:window-maximized="1"
     inkscape:current-layer="svg8064" />
  <path
     style="color:#000000;font-style:normal;font-variant:normal;font-weight:normal;font-stretch:normal;font-size:medium;line-height:normal;font-family:sans-serif;text-indent:0;text-align:start;text-decoration:none;text-decoration-line:none;text-decoration-style:solid;text-decoration-color:#000000;letter-spacing:normal;word-spacing:normal;text-transform:none;direction:ltr;block-progression:tb;writing-mode:lr-tb;baseline-shift:baseline;text-anchor:start;white-space:normal;clip-rule:nonzero;display:inline;overflow:visible;visibility:visible;opacity:1;isolation:auto;mix-blend-mode:normal;color-interpolation:sRGB;color-interpolation-filters:linearRGB;solid-color:#000000;solid-opacity:1;fill:#0063ff;fill-opacity:1;fill-rule:nonzero;stroke:#0009ff;stroke-width:1.00293446;stroke-linecap:round;stroke-linejoin:round;stroke-miterlimit:4;stroke-dasharray:none;stroke-dashoffset:0;stroke-opacity:1;color-rendering:auto;image-rendering:auto;shape-rendering:auto;text-rendering:auto;enable-background:accumulate"
     d="m 5.0994534,4.5 c 0,9.102343 6.9082506,16.629183 15.7499996,17.628906 l 0,11.871094 -25.3078212,0 0,2 -1.8203125,-0.828125 -2.3007813,5.0625 -6.441407,4.003906 -2.054688,19.519531 4.082033,-4.396484 L -3.7200869,49.375 -4.938837,41.888672 -3.1712588,38 l 24.0207118,0 0,11.871094 C 12.007704,50.870817 5.0994534,58.397657 5.0994534,67.5 l 4,0 c 0,-7.617611 6.1323936,-13.75 13.7499996,-13.75 7.617606,0 13.75,6.132389 13.75,13.75 l 4,0 c 0,-9.102343 -6.908251,-16.629183 -15.75,-17.628906 l 0,-11.871094 22,0 0,-4 -22,0 0,-11.871094 c 8.841749,-0.999723 15.75,-8.526563 15.75,-17.628906 l -4,0 c 0,7.617611 -6.132394,13.75 -13.75,13.75 C 15.231847,18.25 9.0994534,12.117611 9.0994534,4.5 Z"
     id="line8066"
     inkscape:connector-curvature="0"
     sodipodi:nodetypes="cccccccccccccccccsccccccccccscc" />
</svg>
