<?xml version="1.0" encoding="UTF-8" standalone="no"?>
<svg
   xmlns:dc="http://purl.org/dc/elements/1.1/"
   xmlns:cc="http://creativecommons.org/ns#"
   xmlns:rdf="http://www.w3.org/1999/02/22-rdf-syntax-ns#"
   xmlns:svg="http://www.w3.org/2000/svg"
   xmlns="http://www.w3.org/2000/svg"
   xmlns:sodipodi="http://sodipodi.sourceforge.net/DTD/sodipodi-0.dtd"
   xmlns:inkscape="http://www.inkscape.org/namespaces/inkscape"
   width="48px"
   height="48px"
   version="1.1"
   id="svg9942"
   inkscape:version="0.91 r13725"
   sodipodi:docname="Falznnaht.svg">
  <metadata
     id="metadata9966">
    <rdf:RDF>
      <cc:Work
         rdf:about="">
        <dc:format>image/svg+xml</dc:format>
        <dc:type
           rdf:resource="http://purl.org/dc/dcmitype/StillImage" />
      </cc:Work>
    </rdf:RDF>
  </metadata>
  <defs
     id="defs9964" />
  <sodipodi:namedview
     pagecolor="#ffffff"
     bordercolor="#666666"
     borderopacity="1"
     objecttolerance="10"
     gridtolerance="10"
     guidetolerance="10"
     inkscape:pageopacity="0"
     inkscape:pageshadow="2"
     inkscape:window-width="1920"
     inkscape:window-height="1053"
     id="namedview9962"
     showgrid="false"
     inkscape:zoom="9.8333333"
     inkscape:cx="-4.3017609"
     inkscape:cy="10.989038"
     inkscape:window-x="0"
     inkscape:window-y="0"
     inkscape:window-maximized="1"
     inkscape:current-layer="svg9942" />
  <path
     style="color:#000000;font-style:normal;font-variant:normal;font-weight:normal;font-stretch:normal;font-size:medium;line-height:normal;font-family:sans-serif;text-indent:0;text-align:start;text-decoration:none;text-decoration-line:none;text-decoration-style:solid;text-decoration-color:#000000;letter-spacing:normal;word-spacing:normal;text-transform:none;direction:ltr;block-progression:tb;writing-mode:lr-tb;baseline-shift:baseline;text-anchor:start;white-space:normal;clip-rule:nonzero;display:inline;overflow:visible;visibility:visible;opacity:1;isolation:auto;mix-blend-mode:normal;color-interpolation:sRGB;color-interpolation-filters:linearRGB;solid-color:#000000;solid-opacity:1;fill:#0063ff;fill-opacity:1;fill-rule:nonzero;stroke:#0009ff;stroke-width:1.00293446;stroke-linecap:round;stroke-linejoin:round;stroke-miterlimit:4;stroke-dasharray:none;stroke-dashoffset:0;stroke-opacity:1;color-rendering:auto;image-rendering:auto;shape-rendering:auto;text-rendering:auto;enable-background:accumulate"
     d="m 22.677966,5.6503906 0,4 9.449219,0 c 4.13821,0 7.451172,3.3110084 7.451172,7.4492184 0,4.138211 -3.312962,7.451172 -7.451172,7.451172 l -9.449219,0 0,4 9.449219,0 c 6.299971,0 11.451172,-5.151201 11.451172,-11.451172 0,-6.299971 -5.151201,-11.4492184 -11.451172,-11.4492184 z m 0,9.4492184 c -6.299974,0 -11.449219,5.151203 -11.449219,11.451172 0,2.841313 1.053297,5.442841 2.78125,7.449219 l -18.8913529,0 0,2 -1.8203125,-0.828125 -2.3007813,5.0625 -6.4414063,4.003906 -2.054688,19.519531 4.082032,-4.396484 L -4.1430747,49.375 -5.3618246,41.888672 -3.5942465,38 l 50.2722125,0 0,-4 -24,0 c -4.138215,0 -7.449219,-3.311006 -7.449219,-7.449219 0,-4.138212 3.311004,-7.451172 7.449219,-7.451172 l 9.449219,0 0,-4 z"
     id="line9944"
     inkscape:connector-curvature="0"
     sodipodi:nodetypes="ccsssccssscsscccccccccccccsssccs" />
</svg>
