<?xml version="1.0" encoding="UTF-8" standalone="no"?>
<svg
   xmlns:dc="http://purl.org/dc/elements/1.1/"
   xmlns:cc="http://creativecommons.org/ns#"
   xmlns:rdf="http://www.w3.org/1999/02/22-rdf-syntax-ns#"
   xmlns:svg="http://www.w3.org/2000/svg"
   xmlns="http://www.w3.org/2000/svg"
   xmlns:sodipodi="http://sodipodi.sourceforge.net/DTD/sodipodi-0.dtd"
   xmlns:inkscape="http://www.inkscape.org/namespaces/inkscape"
   width="48px"
   height="48px"
   version="1.1"
   id="svg16750"
   inkscape:version="0.91 r13725"
   sodipodi:docname="Seam.svg">
  <metadata
     id="metadata16770">
    <rdf:RDF>
      <cc:Work
         rdf:about="">
        <dc:format>image/svg+xml</dc:format>
        <dc:type
           rdf:resource="http://purl.org/dc/dcmitype/StillImage" />
      </cc:Work>
    </rdf:RDF>
  </metadata>
  <defs
     id="defs16768" />
  <sodipodi:namedview
     pagecolor="#ffffff"
     bordercolor="#666666"
     borderopacity="1"
     objecttolerance="10"
     gridtolerance="10"
     guidetolerance="10"
     inkscape:pageopacity="0"
     inkscape:pageshadow="2"
     inkscape:window-width="1920"
     inkscape:window-height="1053"
     id="namedview16766"
     showgrid="false"
     inkscape:zoom="4.9166667"
     inkscape:cx="24"
     inkscape:cy="24"
     inkscape:window-x="0"
     inkscape:window-y="0"
     inkscape:window-maximized="1"
     inkscape:current-layer="svg16750" />
  <path
     style="color:#000000;font-style:normal;font-variant:normal;font-weight:normal;font-stretch:normal;font-size:medium;line-height:normal;font-family:sans-serif;text-indent:0;text-align:start;text-decoration:none;text-decoration-line:none;text-decoration-style:solid;text-decoration-color:#000000;letter-spacing:normal;word-spacing:normal;text-transform:none;direction:ltr;block-progression:tb;writing-mode:lr-tb;baseline-shift:baseline;text-anchor:start;white-space:normal;clip-rule:nonzero;display:inline;overflow:visible;visibility:visible;opacity:1;isolation:auto;mix-blend-mode:normal;color-interpolation:sRGB;color-interpolation-filters:linearRGB;solid-color:#000000;solid-opacity:1;fill:#0063ff;fill-opacity:1;fill-rule:nonzero;stroke:#0009ff;stroke-width:1.00293446;stroke-linecap:round;stroke-linejoin:round;stroke-miterlimit:4;stroke-dasharray:none;stroke-dashoffset:0;stroke-opacity:1;color-rendering:auto;image-rendering:auto;shape-rendering:auto;text-rendering:auto;enable-background:accumulate"
     d="m 24,18.25 c -7.517804,0 -13.950576,4.718474 -16.53125,11.339844 l -2.3691406,0 0,4 1.3339844,0 C 6.4147673,33.727239 6.3867383,33.861637 6.3710938,34 l -12.8795684,0 0,2 -1.8203125,-0.828125 -2.3007809,5.0625 -6.441407,4.003906 -2.054688,19.519531 4.082032,-4.396484 L -5.7701933,49.375 -6.9889433,41.888672 -5.2213652,38 6.3710938,38 c 0.015645,0.138363 0.043674,0.272761 0.0625,0.410156 l -1.3339844,0 0,4 2.3691406,0 C 10.049424,49.031526 16.482196,53.75 24,53.75 c 7.517804,0 13.950576,-4.718474 16.53125,-11.339844 l 2.369141,0 0,-4 -1.333985,0 C 41.585233,38.272761 41.613262,38.138363 41.628906,38 L 48,38 l 0,-4 -6.371094,0 c -0.01564,-0.138363 -0.04367,-0.272761 -0.0625,-0.410156 l 1.333985,0 0,-4 -2.369141,0 C 37.950576,22.968474 31.517804,18.25 24,18.25 Z m 0,4 c 5.298213,0 9.872242,2.970329 12.169922,7.339844 l -24.339844,0 C 14.127758,25.220329 18.701787,22.25 24,22.25 Z m -13.527344,11.339844 27.054688,0 c 0.02386,0.135773 0.04263,0.273016 0.0625,0.410156 l -27.179688,0 c 0.01987,-0.13714 0.03864,-0.274383 0.0625,-0.410156 z M 10.410156,38 37.589844,38 c -0.01987,0.13714 -0.03864,0.274383 -0.0625,0.410156 l -27.054688,0 C 10.448794,38.274383 10.430031,38.13714 10.410156,38 Z m 1.419922,4.410156 24.339844,0 C 33.872242,46.779671 29.298213,49.75 24,49.75 c -5.298213,0 -9.872242,-2.970329 -12.169922,-7.339844 z"
     id="line16752"
     inkscape:connector-curvature="0"
     sodipodi:nodetypes="sccccccccccccccccccccsccccccccccccssccsccccccccccccsc" />
</svg>
