<?xml version="1.0" encoding="UTF-8" standalone="no"?>
<svg
   xmlns:dc="http://purl.org/dc/elements/1.1/"
   xmlns:cc="http://creativecommons.org/ns#"
   xmlns:rdf="http://www.w3.org/1999/02/22-rdf-syntax-ns#"
   xmlns:svg="http://www.w3.org/2000/svg"
   xmlns="http://www.w3.org/2000/svg"
   xmlns:sodipodi="http://sodipodi.sourceforge.net/DTD/sodipodi-0.dtd"
   xmlns:inkscape="http://www.inkscape.org/namespaces/inkscape"
   width="48px"
   height="48px"
   version="1.1"
   id="svg17374"
   inkscape:version="0.91 r13725"
   sodipodi:docname="Spot_or_projection.svg">
  <metadata
     id="metadata17390">
    <rdf:RDF>
      <cc:Work
         rdf:about="">
        <dc:format>image/svg+xml</dc:format>
        <dc:type
           rdf:resource="http://purl.org/dc/dcmitype/StillImage" />
      </cc:Work>
    </rdf:RDF>
  </metadata>
  <defs
     id="defs17388" />
  <sodipodi:namedview
     pagecolor="#ffffff"
     bordercolor="#666666"
     borderopacity="1"
     objecttolerance="10"
     gridtolerance="10"
     guidetolerance="10"
     inkscape:pageopacity="0"
     inkscape:pageshadow="2"
     inkscape:window-width="1920"
     inkscape:window-height="1053"
     id="namedview17386"
     showgrid="false"
     inkscape:zoom="4.9166667"
     inkscape:cx="25.016949"
     inkscape:cy="20.338983"
     inkscape:window-x="0"
     inkscape:window-y="0"
     inkscape:window-maximized="1"
     inkscape:current-layer="svg17374" />
  <path
     style="color:#000000;font-style:normal;font-variant:normal;font-weight:normal;font-stretch:normal;font-size:medium;line-height:normal;font-family:sans-serif;text-indent:0;text-align:start;text-decoration:none;text-decoration-line:none;text-decoration-style:solid;text-decoration-color:#000000;letter-spacing:normal;word-spacing:normal;text-transform:none;direction:ltr;block-progression:tb;writing-mode:lr-tb;baseline-shift:baseline;text-anchor:start;white-space:normal;clip-rule:nonzero;display:inline;overflow:visible;visibility:visible;opacity:1;isolation:auto;mix-blend-mode:normal;color-interpolation:sRGB;color-interpolation-filters:linearRGB;solid-color:#000000;solid-opacity:1;fill:#0063ff;fill-opacity:1;fill-rule:nonzero;stroke:#0009ff;stroke-width:1.00293446;stroke-linecap:round;stroke-linejoin:round;stroke-miterlimit:4;stroke-dasharray:none;stroke-dashoffset:0;stroke-opacity:1;color-rendering:auto;image-rendering:auto;shape-rendering:auto;text-rendering:auto;enable-background:accumulate"
     d="M 24,18.25 C 14.897663,18.25 7.3708183,25.158246 6.3710938,34 l -13.4897379,0 0,2 -1.8203125,-0.828125 -2.3007814,5.0625 -6.441406,4.003906 -2.054688,19.519531 L -15.6538,59.361328 -6.3803628,49.375 -7.5991128,41.888672 -5.8315347,38 6.3710938,38 C 7.3708183,46.841754 14.897663,53.75 24,53.75 33.102337,53.75 40.629182,46.841754 41.628906,38 L 48,38 48,34 41.628906,34 C 40.629182,25.158246 33.102337,18.25 24,18.25 Z m 0,4 c 6.936119,0 12.624637,5.089711 13.589844,11.75 L 10.410156,34 C 11.375363,27.339711 17.063881,22.25 24,22.25 Z M 10.410156,38 37.589844,38 C 36.624637,44.660289 30.936119,49.75 24,49.75 17.063881,49.75 11.375363,44.660289 10.410156,38 Z"
     id="line17376"
     inkscape:connector-curvature="0"
     sodipodi:nodetypes="sccccccccccccsccccssccsccsc" />
</svg>
