<?xml version="1.0" encoding="UTF-8" standalone="no"?>
<svg
   xmlns:dc="http://purl.org/dc/elements/1.1/"
   xmlns:cc="http://creativecommons.org/ns#"
   xmlns:rdf="http://www.w3.org/1999/02/22-rdf-syntax-ns#"
   xmlns:svg="http://www.w3.org/2000/svg"
   xmlns="http://www.w3.org/2000/svg"
   xmlns:sodipodi="http://sodipodi.sourceforge.net/DTD/sodipodi-0.dtd"
   xmlns:inkscape="http://www.inkscape.org/namespaces/inkscape"
   width="48px"
   height="48px"
   version="1.1"
   id="svg19882"
   inkscape:version="0.91 r13725"
   sodipodi:docname="Surfacing.svg">
  <metadata
     id="metadata19898">
    <rdf:RDF>
      <cc:Work
         rdf:about="">
        <dc:format>image/svg+xml</dc:format>
        <dc:type
           rdf:resource="http://purl.org/dc/dcmitype/StillImage" />
      </cc:Work>
    </rdf:RDF>
  </metadata>
  <defs
     id="defs19896" />
  <sodipodi:namedview
     pagecolor="#ffffff"
     bordercolor="#666666"
     borderopacity="1"
     objecttolerance="10"
     gridtolerance="10"
     guidetolerance="10"
     inkscape:pageopacity="0"
     inkscape:pageshadow="2"
     inkscape:window-width="1920"
     inkscape:window-height="1053"
     id="namedview19894"
     showgrid="false"
     inkscape:zoom="4.9166667"
     inkscape:cx="24"
     inkscape:cy="24"
     inkscape:window-x="0"
     inkscape:window-y="0"
     inkscape:window-maximized="1"
     inkscape:current-layer="svg19882" />
  <path
     style="color:#000000;font-style:normal;font-variant:normal;font-weight:normal;font-stretch:normal;font-size:medium;line-height:normal;font-family:sans-serif;text-indent:0;text-align:start;text-decoration:none;text-decoration-line:none;text-decoration-style:solid;text-decoration-color:#000000;letter-spacing:normal;word-spacing:normal;text-transform:none;direction:ltr;block-progression:tb;writing-mode:lr-tb;baseline-shift:baseline;text-anchor:start;white-space:normal;clip-rule:nonzero;display:inline;overflow:visible;visibility:visible;opacity:1;isolation:auto;mix-blend-mode:normal;color-interpolation:sRGB;color-interpolation-filters:linearRGB;solid-color:#000000;solid-opacity:1;fill:#0063ff;fill-opacity:1;fill-rule:nonzero;stroke:#0009ff;stroke-width:1.00293446;stroke-linecap:round;stroke-linejoin:round;stroke-miterlimit:4;stroke-dasharray:none;stroke-dashoffset:0;stroke-opacity:1;color-rendering:auto;image-rendering:auto;shape-rendering:auto;text-rendering:auto;enable-background:accumulate"
     d="M 14.550781,24.550781 C 8.9339268,24.550781 4.2411288,28.647547 3.2871094,34 l -15.6938894,0 0,2 -1.820312,-0.828125 -2.300781,5.0625 -6.441407,4.003906 -2.054688,19.519531 4.082032,-4.396484 9.273438,-9.986328 -1.21875,-7.486328 L -2.7806872,38 48,38 l 0,-4 -3.287109,0 c -0.95402,-5.352453 -5.646818,-9.449219 -11.263672,-9.449219 -3.91404,0 -7.382379,1.989637 -9.449219,5.00586 -2.06684,-3.016223 -5.535179,-5.00586 -9.449219,-5.00586 z m 0,4 c 3.443319,0 6.306853,2.295337 7.173828,5.449219 L 7.3769531,34 c 0.8674787,-3.153807 3.7305629,-5.449219 7.1738279,-5.449219 z m 18.898438,0 c 3.443265,0 6.306349,2.295412 7.173828,5.449219 l -14.347656,0 c 0.866975,-3.153882 3.730509,-5.449219 7.173828,-5.449219 z"
     id="line19884"
     inkscape:connector-curvature="0"
     sodipodi:nodetypes="sccccccccccccccscssccssccs" />
</svg>
